<?xml version="1.0" encoding="UTF-8" standalone="no"?>
<!-- Created with Inkscape (http://www.inkscape.org/) -->

<svg
   xmlns:dc="http://purl.org/dc/elements/1.1/"
   xmlns:cc="http://creativecommons.org/ns#"
   xmlns:rdf="http://www.w3.org/1999/02/22-rdf-syntax-ns#"
   xmlns:svg="http://www.w3.org/2000/svg"
   xmlns="http://www.w3.org/2000/svg"
   xmlns:xlink="http://www.w3.org/1999/xlink"
   xmlns:sodipodi="http://sodipodi.sourceforge.net/DTD/sodipodi-0.dtd"
   xmlns:inkscape="http://www.inkscape.org/namespaces/inkscape"
   width="744.09448819"
   height="1052.3622047"
   id="svg2"
   version="1.1"
   inkscape:version="0.48.4 r9939"
   sodipodi:docname="clouds.svg">
  <defs
     id="defs4">
    <linearGradient
       inkscape:collect="always"
       id="linearGradient3134">
      <stop
         style="stop-color:#ffffff;stop-opacity:1;"
         offset="0"
         id="stop3136" />
      <stop
         style="stop-color:#bbf1ff;stop-opacity:1"
         offset="1"
         id="stop3138" />
    </linearGradient>
    <linearGradient
       inkscape:collect="always"
       id="linearGradient4436">
      <stop
         style="stop-color:#ffffff;stop-opacity:1;"
         offset="0"
         id="stop4438" />
      <stop
         style="stop-color:#b9f1ff;stop-opacity:1"
         offset="1"
         id="stop4440" />
    </linearGradient>
    <linearGradient
       inkscape:collect="always"
       id="linearGradient3341">
      <stop
         style="stop-color:#ffffff;stop-opacity:1;"
         offset="0"
         id="stop3343" />
      <stop
         style="stop-color:#aaeeff;stop-opacity:1"
         offset="1"
         id="stop3345" />
    </linearGradient>
    <linearGradient
       inkscape:collect="always"
       id="linearGradient2997">
      <stop
         style="stop-color:#afe9dd;stop-opacity:1"
         offset="0"
         id="stop2999" />
      <stop
         style="stop-color:#5fbcd3;stop-opacity:1"
         offset="1"
         id="stop3001" />
    </linearGradient>
    <radialGradient
       inkscape:collect="always"
       xlink:href="#linearGradient2997"
       id="radialGradient3005"
       cx="2467.2341"
       cy="133.52426"
       fx="2467.2341"
       fy="133.52426"
       r="1262.9286"
       gradientTransform="matrix(0.00849301,1.158112,-1.162688,0.03440563,1206.4057,336.13347)"
       gradientUnits="userSpaceOnUse" />
    <radialGradient
       inkscape:collect="always"
       xlink:href="#linearGradient3341-5"
       id="radialGradient3364-6"
       gradientUnits="userSpaceOnUse"
       gradientTransform="matrix(0.07613569,1.0399499,-1.1570733,0.08471038,520.88231,-1678.6261)"
       cx="1442.1526"
       cy="-272.26697"
       fx="1442.1526"
       fy="-272.26697"
       r="450" />
    <linearGradient
       inkscape:collect="always"
       id="linearGradient3341-5">
      <stop
         style="stop-color:#ffffff;stop-opacity:1;"
         offset="0"
         id="stop3343-0" />
      <stop
         style="stop-color:#aaeeff;stop-opacity:1"
         offset="1"
         id="stop3345-2" />
    </linearGradient>
    <radialGradient
       inkscape:collect="always"
       xlink:href="#linearGradient3341-2"
       id="radialGradient3364-0"
       gradientUnits="userSpaceOnUse"
       gradientTransform="matrix(0.07613569,1.0399499,-1.1570733,0.08471038,520.88231,-1678.6261)"
       cx="1442.1526"
       cy="-272.26697"
       fx="1442.1526"
       fy="-272.26697"
       r="450" />
    <linearGradient
       inkscape:collect="always"
       id="linearGradient3341-2">
      <stop
         style="stop-color:#ffffff;stop-opacity:1;"
         offset="0"
         id="stop3343-4" />
      <stop
         style="stop-color:#aaeeff;stop-opacity:1"
         offset="1"
         id="stop3345-8" />
    </linearGradient>
    <radialGradient
       inkscape:collect="always"
       xlink:href="#linearGradient3341-0"
       id="radialGradient3364-09"
       gradientUnits="userSpaceOnUse"
       gradientTransform="matrix(0.07613569,1.0399499,-1.1570733,0.08471038,520.88231,-1678.6261)"
       cx="1442.1526"
       cy="-272.26697"
       fx="1442.1526"
       fy="-272.26697"
       r="450" />
    <linearGradient
       inkscape:collect="always"
       id="linearGradient3341-0">
      <stop
         style="stop-color:#ffffff;stop-opacity:1;"
         offset="0"
         id="stop3343-06" />
      <stop
         style="stop-color:#aaeeff;stop-opacity:1"
         offset="1"
         id="stop3345-1" />
    </linearGradient>
    <radialGradient
       inkscape:collect="always"
       xlink:href="#linearGradient3341"
       id="radialGradient3482"
       gradientUnits="userSpaceOnUse"
       gradientTransform="matrix(-0.08943334,1.9732739,2.3728107,0.06039862,1590.1726,-1888.5424)"
       cx="1540.4697"
       cy="-383.08868"
       fx="1540.4697"
       fy="-383.08868"
       r="450" />
    <radialGradient
       inkscape:collect="always"
       xlink:href="#linearGradient4436"
       id="radialGradient4442"
       cx="-502.85715"
       cy="278.0936"
       fx="-502.85715"
       fy="278.0936"
       r="500.7031"
       gradientTransform="matrix(0.0464813,0.93564064,-4.1520025,0.20652884,1384.9907,88.85519)"
       gradientUnits="userSpaceOnUse" />
    <radialGradient
       inkscape:collect="always"
       xlink:href="#linearGradient3134"
       id="radialGradient3140"
       cx="-80.812202"
       cy="649.39008"
       fx="-80.812202"
       fy="649.39008"
       r="838.17188"
       gradientTransform="matrix(-0.0103271,0.61020616,-1.2993963,-0.02200043,1293.7892,511.21318)"
       gradientUnits="userSpaceOnUse" />
  </defs>
  <sodipodi:namedview
     id="base"
     pagecolor="#ffffff"
     bordercolor="#666666"
     borderopacity="1.0"
     inkscape:pageopacity="0.0"
     inkscape:pageshadow="2"
     inkscape:zoom="0.24748737"
     inkscape:cx="131.6713"
     inkscape:cy="171.82343"
     inkscape:document-units="px"
     inkscape:current-layer="layer1"
     showgrid="true"
     showguides="true"
     inkscape:guide-bbox="true"
     inkscape:window-width="1920"
     inkscape:window-height="1018"
     inkscape:window-x="0"
     inkscape:window-y="0"
     inkscape:window-maximized="0"
     inkscape:snap-bbox="true">
    <inkscape:grid
       type="xygrid"
       id="grid3142" />
  </sodipodi:namedview>
  <metadata
     id="metadata7">
    <rdf:RDF>
      <cc:Work
         rdf:about="">
        <dc:format>image/svg+xml</dc:format>
        <dc:type
           rdf:resource="http://purl.org/dc/dcmitype/StillImage" />
        <dc:title></dc:title>
      </cc:Work>
    </rdf:RDF>
  </metadata>
  <g
     inkscape:label="Layer 1"
     inkscape:groupmode="layer"
     id="layer1">
    <path
       style="color:#000000;fill:url(#radialGradient3140);fill-opacity:1;fill-rule:nonzero;stroke:none;stroke-width:3;marker:none;visibility:visible;display:inline;overflow:visible;enable-background:accumulate"
       d="m 473.51995,202.36218 c -30.66042,0 -57.91201,24.7748 -75.06038,63.0973 -10.39051,-2.7298 -21.44083,-4.2024 -32.91364,-4.2024 -60.40688,0 -109.38505,40.8254 -109.38505,91.1644 0,17.3041 5.77964,33.4882 15.828,47.2694 -4.73348,9.8875 -7.42321,20.9437 -7.42321,32.6376 0,1.7734 0.0942,3.533 0.21473,5.276 -11.20112,5.0331 -20.12309,14.6208 -24.75428,26.564 -11.09118,-11.8827 -26.15414,-19.2022 -42.76015,-19.2022 -34.07563,0 -61.68631,30.7628 -61.68631,68.7107 0,34.7457 23.15499,63.436 53.22017,68.0359 -27.42796,12.2297 -47.60572,37.8182 -52.23859,68.496 -2.92335,-2.0016 -6.08242,-3.6922 -9.41706,-5.0613 -0.17726,-48.6338 -38.38883,-88.0049 -85.520314,-88.0049 -44.288676,0 -80.710486,34.7769 -85.090876,79.324 -32.05062,4.728 -56.53299,30.1762 -56.53299,60.8888 0,34.0757 30.12627,61.7169 67.2997,61.7169 23.27534,0 43.80152,-10.8382 55.888816,-27.3001 5.93654,1.3453 12.10726,2.0552 18.43535,2.0552 11.538744,0 22.532504,-2.3482 32.576244,-6.6257 7.48829,6.4085 16.93131,10.708 27.3616,11.9017 8.93956,20.069 28.3332,33.9873 50.82754,33.9873 18.547,0 35.00294,-9.4526 45.21414,-24.018 8.72714,2.829 18.02866,4.3863 27.69901,4.3863 16.58295,0 32.12968,-4.5198 45.45949,-12.3617 -11.61873,-20.4791 -18.25127,-44.1592 -18.25127,-69.3856 0,-77.7617 63.03412,-140.7957 140.79565,-140.7957 16.39266,0 32.11668,2.8254 46.74785,7.9753 -1.03609,-0.022 -2.08728,-0.061 -3.12879,-0.061 -2.74172,0 -5.45641,0.091 -8.1594,0.2454 -1.89341,-0.1478 -3.78101,-0.2454 -5.70544,-0.2454 -12.26414,0 -23.95075,3.0572 -34.53943,8.5582 -0.0204,0.011 -0.0411,0.02 -0.0613,0.031 -53.87786,19.7566 -92.33004,71.4792 -92.33004,132.207 0,77.7613 63.0341,140.7954 140.79566,140.7954 26.63223,0 51.52246,-7.3973 72.75977,-20.2451 0.009,0 0.0231,0.014 0.0306,0 0.79271,0.1459 1.59039,0.2877 2.39259,0.3988 20.54962,6.6068 44.2079,10.368 69.38556,10.368 78.99354,0 143.03493,-37.0372 143.03493,-82.7289 0,-3.5968 -0.42559,-7.1393 -1.1963,-10.6135 21.89448,7.4972 45.68454,11.6257 70.5512,11.6257 21.44728,0 42.09078,-3.061 61.41022,-8.7114 10.1012,7.886 23.31415,12.6684 37.76022,12.6684 29.74193,0 54.21593,-20.2396 57.20783,-46.1957 17.257,13.8281 41.2044,22.3924 67.6985,22.3924 22.606,0 43.3359,-6.2633 59.6618,-16.6871 2.7699,-45.9594 45.1099,-82.4528 96.9312,-82.4528 29.0725,0 55.1581,11.4965 72.9438,29.693 -12.8389,-6.2988 -27.5022,-9.8772 -43.0976,-9.8772 -50.3807,0 -91.2258,37.2813 -91.2258,83.2811 0,40.9493 32.3502,75.0102 74.999,81.9928 19.3539,13.1794 44.3907,21.1347 71.7475,21.1347 61.3331,0 111.0415,-39.9466 111.0415,-89.2319 0,-19.2963 -7.6568,-37.1507 -20.6132,-51.7479 0.8758,-1.8743 1.7307,-3.8114 2.5459,-5.7668 0.072,3e-4 0.1425,0 0.2148,0 2.3086,0 4.5932,-0.1412 6.8097,-0.4295 12.068,4.9227 25.1489,7.8119 38.8338,8.2821 0.8623,30.8844 22.7053,55.6128 49.5393,55.6128 25.6515,0 46.7613,-22.5932 49.3244,-51.5637 0.093,4e-4 0.1851,0 0.2761,0 26.2858,0 47.576,-19.5239 47.576,-43.6191 0,-19.5048 -13.9569,-36.0405 -33.2205,-41.6252 3.5462,-11.2601 5.4603,-23.2786 5.4603,-35.7357 0,-2.3317 -0.083,-4.6344 -0.2148,-6.9324 16.9797,-15.5448 27.975,-40.3883 27.975,-68.404 0,-47.095 -31.0523,-85.2749 -69.3854,-85.2749 -26.2503,0 -49.094,17.9148 -60.8889,44.3245 -4.1059,-0.4514 -8.2913,-0.7055 -12.5151,-0.7055 -17.8562,0 -34.7365,4.1472 -49.8153,11.5336 -17.5742,-41.5657 -56.4634,-74.1513 -105.1521,-87.8209 -3.4759,-39.4966 -36.6548,-70.4592 -77.0542,-70.4592 -24.2679,0 -45.9115,11.1626 -60.0912,28.6499 -9.95,-8.0461 -22.0477,-12.7913 -35.0915,-12.7913 -15.4395,0 -29.5399,6.6303 -40.3369,17.5458 -11.6716,-31.953 -37.6189,-55.4483 -68.8028,-60.2446 -2.5216,-1.9827 -5.1311,-3.8704 -7.822,-5.6747 -19.0888,-25.9492 -50.19779,-42.8523 -85.30564,-42.8523 -40.09563,0 -74.92163,22.051 -92.63679,54.4471 24.79485,-21.4636 58.05865,-34.6008 94.63063,-34.6008 0.87032,0 1.74085,0.016 2.60732,0.031 -69.65254,1.5746 -125.58112,52.4368 -125.58112,114.9678 0,63.5235 57.73449,115.0292 128.92465,115.0292 71.19015,0 128.89395,-51.5057 128.89395,-115.0292 0,-10.9181 -1.7228,-21.4649 -4.9079,-31.472 5.7147,14.1117 8.8649,29.4 8.8649,45.3675 0,71.1902 -62.1355,128.894 -138.8018,128.894 -70.37968,0 -128.51199,-48.6354 -137.57485,-111.6856 -0.55563,0.1477 -1.10275,0.3083 -1.65642,0.4601 -5.12086,62.2564 -58.92357,111.2255 -124.5382,111.2255 -32.75573,0 -62.56426,-12.212 -84.84551,-32.1774 17.74626,7.9011 37.82433,12.3618 59.07897,12.3618 72.28539,0 130.88783,-51.5057 130.88783,-115.0292 0,-22.6101 -7.42216,-43.6903 -20.24512,-61.4716 -4.46469,-43.3776 -45.19723,-77.3302 -94.78403,-77.3302 -24.08919,0 -46.08521,8.0097 -62.8519,21.2267 -16.89237,-27.4613 -39.83723,-44.3867 -65.15245,-44.3867 z m 61.77831,47.1773 c -17.85595,15.5002 -28.95669,37.193 -28.95669,61.2262 0,47.095 42.61158,85.2749 95.1828,85.2749 29.9486,0 56.66029,-12.3778 74.10945,-31.748 -16.42276,30.41 -53.17856,51.5944 -95.91899,51.5944 -58.04736,0 -105.12129,-39.0786 -105.12129,-87.2688 0,-35.0108 24.85937,-65.1822 60.70472,-79.0787 z m -25.06104,398.0315 c 5.25233,11.4469 8.22077,24.3442 8.22077,38.0056 0,47.0951 -35.10712,85.2749 -78.43454,85.2749 -28.31265,0 -53.13242,-16.2948 -66.93163,-40.7356 14.15252,11.9274 31.38565,18.9261 49.96867,18.9261 47.18059,0 85.58692,-45.1063 87.17673,-101.471 z"
       id="path3009-1-7-5"
       inkscape:connector-curvature="0"
       sodipodi:nodetypes="ccsscsccsscccscsscsccscscsscscsccsscccsscscscscscsscssccsccscsscscsscsccscscccscscssscssccscsscsccccsscssccsscsc"
       inkscape:export-filename="C:\Users\Robert\Desktop\CLOUDSsprite.png"
       inkscape:export-xdpi="43.762184"
       inkscape:export-ydpi="43.762184" />
    <path
       style="color:#000000;fill:url(#radialGradient3482);fill-opacity:1;fill-rule:nonzero;stroke:none;stroke-width:3;marker:none;visibility:visible;display:inline;overflow:visible;enable-background:accumulate"
       d="m 307.41031,852.36268 c 75.0064,0 123.7886,58.5879 123.7886,132.2196 0,60.72062 -29.2973,113.08412 -85.8628,129.18672 62.0907,-9.4935 109.438,-59.3331 109.438,-119.39462 0,-25.5725 -2.5291,-34.9263 1.0112,-29.3626 40.8485,2.406 73.9063,35.12212 79.1391,77.05702 -7.9843,11.7234 -12.7262,26.0836 -12.7262,41.5838 0,39.5707 30.6241,71.6605 68.3934,71.6605 5.8415,0 11.5272,-0.7778 16.9403,-2.222 -2.3953,0.2625 -4.829,0.3967 -7.2903,0.3967 -37.7697,0 -68.3935,-31.678 -68.3935,-70.7479 0,-39.0698 30.6238,-70.7479 68.3935,-70.7479 26.5057,0 49.4994,15.6011 60.85,38.4094 12.8488,-8.2369 27.9589,-13.0148 44.1207,-13.0148 46.8128,0 84.786,39.7936 84.786,88.8814 0,44.9404 -31.817,82.0516 -73.1129,88.0083 16.3459,6.8674 30.8168,16.9804 42.477,29.4816 5.6453,-2.0717 11.766,-3.214 18.12,-3.214 12.6012,0 24.1552,4.4431 33.2488,11.8641 10.439,-24.0634 29.1185,-43.8989 52.5907,-56.2254 0,0 0,-0.036 0,-0.04 12.2897,-20.2651 33.0727,-33.6083 56.6786,-33.6083 19.2196,0 36.585,8.8733 49.0087,23.0933 4.2434,-3.1248 9.2386,-4.9202 14.5806,-4.9202 15.4268,0 27.93879,14.9957 27.93879,33.5289 0,3.6075 -0.4716,7.0995 -1.3487,10.3562 14.1279,16.8473 23.4068,37.69 25.79,60.5108 44.0305,6.1157 77.6642,39.0735 77.6642,78.8027 0,44.0788 -41.4294,79.7947 -92.4976,79.7947 -20.7641,0 -39.94149,-5.9 -55.37199,-15.8717 -7.6565,4.9154 -16.7557,7.7772 -26.5482,7.7772 -27.083,0 -49.0511,-21.8078 -49.0511,-48.726 0,-26.9181 21.9681,-48.7656 49.0511,-48.7656 4.2775,0 8.3913,0.5643 12.3468,1.5871 -7.2809,-4.2598 -15.6671,-6.7057 -24.6095,-6.7057 -27.8355,0 -50.3996,23.5315 -50.3996,52.5747 0,6.6857 1.1907,13.0839 3.3712,18.9667 -1.8919,-0.6493 -3.7591,-1.3238 -5.6046,-2.0633 -10.2922,8.298 -23.2913,13.8524 -37.6312,15.3955 -12.2739,25.9783 -38.9108,43.9645 -69.8262,43.9645 -25.4673,0 -48.0428,-12.2015 -62.0724,-31.0291 -12.0001,3.6686 -24.7954,5.6344 -38.0943,5.6344 -23.3393,0 -45.1536,-6.0962 -63.7582,-16.7049 -48.3108,52.1364 -123.4619,85.6276 -207.8768,85.6276 -21.933,0 -43.22,-2.2506 -63.5894,-6.5074 -16.0729,12.012 -36.8249,21.5433 -59.1648,19.2444 -53.5616,-5.5117 -70.0394,-26.7511 -83.1614,-65.618 -14.8887,-44.0993 21.6327,-89.5495 77.0553,-89.5495 34.8819,0 65.6181,7.7776 83.6018,39.5797 -16.4574,-38.8134 -50.4892,-65.4817 -89.8298,-65.4817 -47.955,0 -74.9987,31.5777 -84.2087,69.3727 -13.9243,-17.5438 -24.9949,-36.8238 -32.6163,-57.4156 -15.5388,20.1506 -39.3116,33.0526 -65.949309,33.0526 -46.813201,0 -84.743601,-39.7934 -84.743601,-88.8812 0,-21.2415 7.1076,-40.7375 18.9631,-56.0269 -9.8982,4.5121 -20.8842,7.0628 -32.448,7.0628 -43.6209,0 -78.9704,-35.7556 -78.9704,-79.8344 0,-44.0789 35.3495,-79.7948 78.9704,-79.7948 13.7911,0 26.727,3.6023 38.0104,9.8801 21.589,-43.9344 68.075201,-75.8758 123.47021,-81.5407 7.1495,-13.32152 18.0404,-24.27282 31.2259,-31.46572 2.2962,-71.6562 62.1816,-129.0763 135.7334,-129.0763 z m -17.7412,92.5318 c -51.3743,0 -93.0031,37.7348 -93.0031,84.31822 0,13.7408 3.6466,26.7069 10.0714,38.1714 -2.7954,-8.028 -4.2982,-16.5685 -4.2982,-25.4343 0,-46.58352 41.628,-84.35802 93.003,-84.35802 36.259,0 67.6626,18.8172 83.016,46.26602 -11.8766,-34.18652 -47.1571,-58.96332 -88.7891,-58.96332 z"
       id="path3009-1-7-5-3"
       inkscape:connector-curvature="0"
       sodipodi:nodetypes="sscsccsscssscssccscccscssccsscssscsscccscscscssscsccsscssscccssscsscs"
       inkscape:export-filename="C:\Users\Robert\Desktop\CLOUDSsprite.png"
       inkscape:export-xdpi="43.762184"
       inkscape:export-ydpi="43.762184" />
    <path
       style="color:#000000;fill:url(#radialGradient4442);fill-opacity:1;fill-rule:nonzero;stroke:none;stroke-width:3;marker:none;visibility:visible;display:inline;overflow:visible;enable-background:accumulate"
       d="m 101.84832,-447.63772 c -40.540449,0 -73.38948,36.5991 -73.38948,81.7465 0,3.1119 0.16972,6.175 0.47438,9.1965 -24.7042604,27.1804 -44.24017,59.3855 -57.00354,94.9938 2.90819,-0.494 5.8995,-0.7663 8.9775,-0.7663 25.3379296,0 45.87291,17.5422 45.87291,39.1945 0,10.2706 -4.62708,19.6166 -12.18892,26.6041 2.48624,-5.0715 3.86828,-10.6961 3.86828,-16.6048 0,-22.5737 -20.1563803,-40.8732 -45.03349,-40.8732 -13.48792,0 -25.61119,5.3809 -33.86646,13.9042 1.41548,-2.5101 3.1291,-4.8638 5.10922,-7.0434 -19.87884,14.6254 -32.99057,39.7253 -32.99057,68.2437 0,17.587 4.98115,33.8523 13.46634,47.1867 C -90.30107,-115.07062 -100,-90.86151 -100,-63.94001 c 0,50.675501 34.36377,91.7459 76.74699,91.7459 14.6657198,0 28.3443196,-4.9332 39.99731,-13.4664 50.173571,63.2204 126.44796,103.56999 211.8841,103.56999 11.13902,0 22.12687,-0.7106 32.91743,-2.0437 3.46552,0.2341 6.95431,0.3649 10.47387,0.3649 92.13752,0 166.81396,-81.41959 166.81396,-181.84949 0,-100.42981 -74.67644,-181.81301 -166.81396,-181.81301 -48.51309,0 -92.17248,22.5764 -122.65628,58.6094 30.85838,-49.4343 83.25027,-81.9655 142.69137,-81.9655 94.90167,0 171.8138,82.8979 171.8138,185.17041 0,62.2732 -28.5231,117.3697 -72.25812,150.9391 21.65507,19.1135 51.25905,30.910397 83.93609,30.910397 50.07799,0 92.98249,-27.677797 111.01479,-67.002897 -15.1235,-18.1638 -24.2684,-41.637799 -24.2684,-67.2949 0,-57.586 45.9565,-104.26331 102.6209,-104.26331 56.6647,0 102.5846,46.67731 102.5846,104.26331 0,16.833 -3.9065,32.7099001 -10.8751,46.7852 2.7457,-9.50499987 4.2333,-19.636399 4.2333,-30.144 0,-54.8217 -40.3495,-99.26361 -90.1036,-99.26361 -49.7543,0 -90.0672,44.44191 -90.0672,99.26361 0,42.4486 24.1586,78.6875 58.1715,92.8773 33.182,19.885597 72.7518,31.45779 115.2844,31.45779 56.3575,0 107.5812,-20.29369 145.5379,-53.35419 -18.7311,-7.4306 -32.0783,-26.6792 -32.0783,-49.26689997 0,-29.02330003 22.0497,-52.55140003 49.2305,-52.55140003 13.7439,0 26.1743,6.0289 35.1072,15.7289 -5.9846,-3.6542 -12.8401,-5.7295 -20.1083,-5.7295 -23.495,0 -42.5154,21.671101 -42.5154,48.391 0,26.7199 19.0204,48.3545 42.5154,48.3545 7.297,0 14.18,-2.0848 20.1814,-5.766 0.037,-0.023 0.072,-0.05 0.1088,-0.073 25.68631,-9.1239 43.93869,-32.1732 43.93869,-59.1932 0,-5.001799 -0.6432,-9.856899 -1.8246,-14.5246 43.57696,-12.8192 75.21416,-51.5136 75.21416,-97.25651 0,-56.2039 -47.7769,-101.7452 -106.74504,-101.7452 -3.4362,0 -6.82871,0.1356 -10.18191,0.4379 0.1071,-1.8049 0.1459,-3.6391 0.1459,-5.4741 0,-45.1473 -32.8491,-81.7465 -73.3897,-81.7465 -24.1584,0 -45.5976,13.0062 -58.9743,33.0635 -20.8162,-6.2977 -43.0604,-9.7074 -66.1633,-9.7074 -4.1507,0 -8.2435,0.1115 -12.3351,0.3285 -13.3467,-20.4062 -34.9714,-33.6839 -59.3758,-33.6839 -32.9391,0 -60.811,24.1651 -70.1048,57.4415 -16.0733,-8.4727 -34.0981,-13.465 -53.1718,-14.0137 12.5397,-16.7861 19.8162,-36.8627 19.8162,-58.4269 0,-58.9679 -54.5201,-106.7814 -121.78045,-106.7814 -6.02463,0 -11.94723,0.3893 -17.73595,1.1314 -3.98048,-0.7472 -8.07395,-1.1314 -12.26206,-1.1314 -37.77648,0 -68.38978,31.7129 -68.38978,70.8713 0,39.1585 30.6133,70.9078 68.38978,70.9078 24.17432,0 45.3858,-13.0022 57.55107,-32.6256 -9.8911,27.7724 -36.38215,47.6612 -67.55046,47.6612 -39.61907,0 -71.7472,-32.128 -71.7472,-71.7472 0,-19.5953 7.88407,-37.3417 20.61917,-50.2887 -40.38688,-24.2247 -87.33814,-38.0997 -137.43643,-38.0997 -29.34284,0 -57.58423,4.7642 -84.08203,13.5758 -12.0299,-9.5949 -26.77311,-15.2546 -42.69823,-15.2546 z m 195.20625,325.3073 c 35.01215,0 63.39009,29.89251 63.39009,66.74751 0,11.6826 -2.87243,22.6397 -7.88274,32.1877 0.79118,-4.2117 1.20438,-8.5681 1.20438,-13.0284 0,-36.3942 -27.62048,-65.8717 -61.71151,-65.8717 -27.01945,0 -49.98922,18.5321 -58.35374,44.3403 1.18984,-35.7538 29.09776,-64.37541 63.35352,-64.37541 z m -156.7417,78.90001 c 2.30654,61.8737 50.31189,111.3066 109.19004,111.3066 36.29554,0 68.44285,-18.7998 88.31535,-47.6976 -16.38897,36.9731 -52.76103,62.6966 -94.99371,62.6966 -57.58593,0 -104.26338,-47.8133 -104.26338,-106.7814 0,-6.6669 0.61003,-13.1962 1.7517,-19.5242 z"
       id="path3007"
       inkscape:connector-curvature="0"
       inkscape:transform-center-x="981.48055"
       inkscape:transform-center-y="-250.08869"
       inkscape:export-filename="C:\Users\Robert\Desktop\CLOUDSsprite.png"
       inkscape:export-xdpi="43.762184"
       inkscape:export-ydpi="43.762184" />
  </g>
</svg>
